# AST/ASF file generated using VICON BodyLanguage
# -----------------------------------------------
:version 1.10
:name VICON
:units
  mass 1.0
  length 0.45
  angle deg
:documentation
   .ast/.asf automatically generated from VICON data using
   VICON BodyBuilder and BodyLanguage model FoxedUp or BRILLIANT.MOD
:root
   order TX TY TZ RX RY RZ
   axis XYZ
   position 0 0 0  
   orientation 0 0 0 
:bonedata
  begin
     id 1 
     name lhipjoint
     direction 0.541323 -0.757556 0.364798 
     length 2.47576 
     axis 0 0 0  XYZ
  end
  begin
     id 2 
     name lfemur
     direction 0.34202 -0.939693 0  
     length 7.46493  
     axis 0 0 20  XYZ
    dof rx ry rz
    limits (-160.0 20.0)
           (-70.0 70.0)
           (-60.0 70.0)
  end
  begin
     id 3 
     name ltibia
     direction 0.34202 -0.939693 0   
     length 7.73805   
     axis 0 0 20   XYZ
    dof rx
    limits (-10.0 170.0)
  end
  begin
     id 4 
     name lfoot
     direction 0.107174 -0.294458 0.949636   
     length 2.25864   
     axis -90 7.62852e-016 20   XYZ
    dof rx rz
    limits (-45.0 90.0)
           (-70.0 20.0)
  end
  begin
     id 5 
     name ltoes
     direction 1.53606e-011 -4.21934e-011 1   
     length 1.12451   
     axis -90 7.62852e-016 20   XYZ
    dof rx
    limits (-90.0 20.0)
  end
  begin
     id 6 
     name rhipjoint
     direction -0.524745 -0.766967 0.36933   
     length 2.44538  
     axis 0 0 0  XYZ 
  end
  begin
     id 7 
     name rfemur
     direction -0.34202 -0.939693 0   
     length 7.61604   
     axis 0 0 -20   XYZ
    dof rx ry rz
    limits (-160.0 20.0)
           (-70.0 70.0)
           (-70.0 60.0)
  end
  begin
     id 8 
     name rtibia
     direction -0.34202 -0.939693 0   
     length 7.61056   
     axis 0 0 -20   XYZ
    dof rx
    limits (-10.0 170.0)
 end
 begin
     id 9 
     name rfoot
     direction -0.12616 -0.346623 0.929482   
     length 2.46372  
     axis -90 -7.62852e-016 -20   XYZ
    dof rx rz
    limits (-45.0 90.0)
           (-20.0 70.0)
  end
  begin
     id 10 
     name rtoes
     direction -1.53531e-011 -4.22004e-011 1   
     length 1.21611   
     axis -90 -7.62852e-016 -20   XYZ
    dof rx
    limits (-90.0 20.0)
  end
  begin
     id 11 
     name lowerback
     direction -0.000778023 0.997293 -0.0735223   
     length 2.06139   
     axis 0 0 0   XYZ
    dof rx ry rz
    limits (-20.0 45.0)
           (-30.0 30.0)
           (-30.0 30.0)
  end
  begin
     id 12 
     name upperback
     direction 0.0222598 0.999722 -0.0078355   
     length 2.06383   
     axis 0 0 0   XYZ
    dof rx ry rz
    limits (-20.0 45.0)
           (-30.0 30.0)
           (-30.0 30.0)
  end
  begin
     id 13 
     name thorax
     direction 0.0219654 0.999405 0.0265994   
     length 2.07163   
     axis 0 0 0   XYZ
    dof rx ry rz
    limits (-20.0 45.0)
           (-30.0 30.0)
           (-30.0 30.0)
  end
  begin
     id 14 
     name lowerneck
     direction 0.0213282 0.988147 0.15202   
     length 1.75969   
     axis 0 0 0   XYZ
    dof rx ry rz
    limits (-20.0 45.0)
           (-30.0 30.0)
           (-30.0 30.0)
  end
  begin
     id 15 
     name upperneck
     direction -0.0546456 0.982624 -0.177379   
     length 1.79244   
     axis 0 0 0   XYZ
    dof rx ry rz
    limits (-20.0 45.0)
           (-30.0 30.0)
           (-30.0 30.0)
  end
  begin
     id 16
     name head
     direction -0.0199987 0.996855 -0.076686  
     length 1.80555  
     axis 0 0 0   XYZ
    dof rx ry rz
    limits (-20.0 45.0)
           (-30.0 30.0)
           (-30.0 30.0)
  end
  begin
     id 17 
     name lclavicle
     direction 0.929565 0.363219 -0.063096  
     length 3.55722  
     axis 0 0 0   XYZ
    dof ry rz
    limits (-20.0 10.0)
           (0.0 20.0)
  end
  begin
     id 18 
     name lhumerus
     direction 1 -4.48993e-011 -2.36203e-027   
     length 4.92785   
     axis 180 -30 -90   XYZ
    dof rx ry rz
    limits (-60.0 90.0)
           (-90.0 90.0)
           (-90.0 90.0)
  end
  begin
     id 19
     name lradius
     direction 1 -4.48947e-011 2.02997e-027   
     length 3.44052   
     axis 180 -30 -90   XYZ
    dof rx
    limits (-10.0 170.0)
  end
  begin
     id 20
     name lwrist
     direction 1 -4.48962e-011 1.45991e-027   
     length 1.72026   
     axis 1.49639e-024 90 90   XYZ
    dof ry
    limits (-180.0 0.0)
 end
  begin
     id 21 
     name lhand
     direction 1 -4.48984e-011 2.91906e-027   
     length 0.654326   
     axis -1.863e-015 90 90   XYZ
    dof rx rz
    limits (-90.0 90.0)
           (-45.0 45.0)
  end
  begin
     id 22 
     name lfingers
     direction 1 -4.48961e-011 5.83968e-027   
     length 0.527534   
     axis -3.72598e-015 90 90   XYZ
    dof rx
    limits (0.0 90.0)
  end
  begin
     id 23
     name lthumb
     direction 0.707107 -6.34963e-011 0.707107   
     length 0.757437   
     axis -90 45 -6.68868e-015   XYZ
    dof rx rz
    limits (-45.0 45.0)
           (-45.0 45.0)
  end
  begin
     id 24 
     name rclavicle
     direction -0.902944 0.422599 -0.0781198   
     length 3.54432  
     axis 0 0 0   XYZ 
    dof ry rz
    limits (-10.0 20.0)
           (-20.0 0.0)
  end
  begin
     id 25 
     name rhumerus
     direction -1 -4.48953e-011 -4.75835e-028  
     length 5.09181   
     axis 180 30 90   XYZ
    dof rx ry rz
    limits (-90.0 60.0)
           (-90.0 90.0)
           (-90.0 90.0)
  end
  begin
     id 26 
     name rradius
     direction -1 -4.48986e-011 -3.25889e-027   
     length 3.49865   
     axis 180 30 90   XYZ
    dof rx
    limits (-10.0 170.0)
  end
  begin
     id 27 
     name rwrist
     direction -1 -4.48963e-011 1.45989e-027   
     length 1.74933   
     axis 1.49639e-024 -90 -90   XYZ
    dof ry
    limits (-180.0 0.0)
  end
  begin
     id 28
     name rhand
     direction -1 -4.49003e-011 2.91844e-027   
     length 0.66641   
     axis -1.863e-015 -90 -90   XYZ
    dof rx rz
    limits (-90.0 90.0)
           (-45.0 45.0)
  end
  begin
     id 29
     name rfingers
     direction -1 -4.48973e-011 5.83886e-027   
     length 0.537277   
     axis -3.72598e-015 -90 -90   XYZ
    dof rx
    limits (0.0 90.0)
  end
  begin
     id 30
     name rthumb
     direction -0.707107 -6.34976e-011 0.707107   
     length 0.771425   
     axis -90 -45 6.68868e-015   XYZ
    dof rx rz
    limits (-45.0 45.0)
           (-45.0 45.0)
  end
:hierarchy
  begin
    root lhipjoint rhipjoint lowerback
    lhipjoint lfemur
    lfemur ltibia
    ltibia lfoot
    lfoot ltoes
    rhipjoint rfemur
    rfemur rtibia
    rtibia rfoot
    rfoot rtoes
    lowerback upperback
    upperback thorax
    thorax lowerneck lclavicle rclavicle
    lowerneck upperneck
    upperneck head
    lclavicle lhumerus
    lhumerus lradius
    lradius lwrist
    lwrist lhand lthumb
    lhand lfingers
    rclavicle rhumerus
    rhumerus rradius
    rradius rwrist
    rwrist rhand rthumb
    rhand rfingers
  end

#!OML:ASF H:\LiuWeirdWalks\Patient Classification 1\Patient 1\Session 1\male.ASF
:FULLY-SPECIFIED
:DEGREES
328
root 0.381903 18.1352 -26.1578 5.75519 2.50081 3.3523
lowerback 2.69763 -6.18761 -5.96391
upperback -2.10778 -8.39848 5.31256
thorax -2.04274 -4.07982 9.17755
lowerneck -14.6396 6.83377 7.94453
upperneck 20.2856 10.8491 -13.8088
head 10.1095 4.21119 -4.70867
rclavicle 4.49253e-014 1.59028e-015
rhumerus -38.9865 -0.730797 -72.0993
rradius 31.3614
rwrist -8.88068
rhand -15.8865 -4.30368
rfingers 7.12502
rthumb 10.3097 -34.031
lclavicle 4.49253e-014 1.59028e-015
lhumerus -33.5443 21.2177 80.6117
lradius 37.0419
lwrist 14.5666
lhand -12.3071 0.0352951
lfingers 7.12502
lthumb 13.7611 29.5602
rfemur -27.0283 -0.462723 17.1208
rtibia 25.7106
rfoot -13.9995 -17.4954
rtoes -13.4485
lfemur 15.2932 -1.79547 -25.3444
ltibia 5.517
lfoot 3.57707 7.35701
ltoes -27.7543
329
root 0.365968 18.1393 -26.0986 5.76974 2.47069 3.36444
lowerback 2.66051 -6.16774 -5.96159
upperback -2.10478 -8.3705 5.29206
thorax -2.02774 -4.06653 9.14942
lowerneck -14.6011 6.82526 7.94169
upperneck 20.2656 10.8289 -13.7766
head 10.0899 4.20733 -4.69992
rclavicle -7.14631e-014 1.59028e-014
rhumerus -38.9957 -0.656294 -72.2147
rradius 31.5698
rwrist -9.02291
rhand -15.9284 -4.31531
rfingers 7.12502
rthumb 10.2692 -34.0446
lclavicle -7.14631e-014 1.59028e-014
lhumerus -33.6022 21.1587 80.5875
lradius 37.0225
lwrist 14.549
lhand -12.3601 0.117307
lfingers 7.12502
lthumb 13.71 29.6457
rfemur -26.925 -0.521074 17.1999
rtibia 25.8521
rfoot -14.0066 -17.5064
rtoes -13.399
lfemur 15.1944 -1.81526 -25.2943
ltibia 5.9806
lfoot 3.76639 7.30336
ltoes -28.038
330
root 0.350044 18.1434 -26.0386 5.78437 2.44002 3.37931
lowerback 2.62166 -6.1415 -5.96197
upperback -2.10482 -8.33398 5.27426
thorax -2.01586 -4.04864 9.12586
lowerneck -14.5419 6.83273 7.97617
upperneck 20.2194 10.829 -13.7799
head 10.0642 4.21389 -4.70703
rclavicle 5.20816e-014 1.74931e-014
rhumerus -39.0404 -0.531495 -72.3409
rradius 31.8247
rwrist -9.2129
rhand -15.9536 -4.32446
rfingers 7.12502
rthumb 10.245 -34.055
lclavicle 5.20816e-014 1.74931e-014
lhumerus -33.6677 21.1016 80.5759
lradius 37.0093
lwrist 14.5102
lhand -12.4012 0.200323
lfingers 7.12502
lthumb 13.6704 29.7314
rfemur -26.8162 -0.571159 17.273
rtibia 25.9897
rfoot -14.0236 -17.5065
rtoes -13.3679
lfemur 15.0925 -1.83409 -25.25
ltibia 6.45234
lfoot 3.95947 7.26316
ltoes -28.3053
331
root 0.333924 18.1476 -25.9785 5.80213 2.41317 3.38597
lowerback 2.58962 -6.11526 -5.96408
upperback -2.10329 -8.2977 5.26455
thorax -2.00463 -4.03089 9.11274
lowerneck -14.5324 6.83857 8.00119
upperneck 20.203 10.8306 -13.7829
head 10.0584 4.21731 -4.71192
rclavicle 5.66536e-014 -2.70347e-014
rhumerus -39.073 -0.414439 -72.4592
rradius 32.0692
rwrist -9.3623
rhand -15.9385 -4.27049
rfingers 7.12502
rthumb 10.2594 -34.0003
lclavicle 5.66536e-014 -2.70347e-014
lhumerus -33.7249 21.0653 80.5691
lradius 36.9926
lwrist 14.4546
lhand -12.4457 0.262986
lfingers 7.12502
lthumb 13.6274 29.7969
rfemur -26.7042 -0.604491 17.3513
rtibia 26.1184
rfoot -14.0471 -17.5027
rtoes -13.3736
lfemur 14.971 -1.85572 -25.1943
ltibia 6.94319
lfoot 4.15307 7.22262
ltoes -28.5587
332
root 0.317401 18.152 -25.9186 5.82358 2.39542 3.37555
lowerback 2.56982 -6.09495 -5.95522
upperback -2.10516 -8.26919 5.26707
thorax -2.00197 -4.01671 9.10837
lowerneck -14.5457 6.85484 8.02002
upperneck 20.2152 10.8522 -13.79
head 10.0696 4.22716 -4.71435
rclavicle -8.34896e-015 9.54166e-015
rhumerus -39.1044 -0.264532 -72.5833
rradius 32.3244
rwrist -9.51947
rhand -15.9099 -4.20888
rfingers 7.12502
rthumb 10.2871 -33.9373
lclavicle -8.34896e-015 9.54166e-015
lhumerus -33.7869 21.0566 80.5609
lradius 36.974
lwrist 14.3943
lhand -12.493 0.264132
lfingers 7.12502
lthumb 13.5819 29.8011
rfemur -26.5906 -0.614046 17.4438
rtibia 26.2378
rfoot -14.0637 -17.5007
rtoes -13.4126
lfemur 14.8408 -1.88545 -25.115
ltibia 7.43493
lfoot 4.35095 7.17628
ltoes -28.781
333
root 0.301059 18.1561 -25.8582 5.85013 2.37349 3.35794
lowerback 2.53806 -6.07789 -5.93695
upperback -2.10318 -8.2441 5.27423
thorax -1.98847 -4.00507 9.10175
lowerneck -14.571 6.86336 8.02078
upperneck 20.22 10.8675 -13.8049
head 10.0793 4.23153 -4.71708
rclavicle 2.54444e-014 1.27222e-014
rhumerus -39.1307 -0.089537 -72.7155
rradius 32.5887
rwrist -9.68263
rhand -15.8988 -4.17841
rfingers 7.12502
rthumb 10.2978 -33.9063
lclavicle 2.54444e-014 1.27222e-014
lhumerus -33.8391 21.0656 80.5512
lradius 36.9449
lwrist 14.3274
lhand -12.5529 0.238745
lfingers 7.12502
lthumb 13.5241 29.7796
rfemur -26.4764 -0.602592 17.5391
rtibia 26.3473
rfoot -14.0695 -17.4795
rtoes -13.4865
lfemur 14.7044 -1.91079 -25.0272
ltibia 7.93152
lfoot 4.54499 7.11557
ltoes -29.0044
334
root 0.284676 18.1599 -25.7974 5.87033 2.35216 3.33119
lowerback 2.50006 -6.06263 -5.9124
upperback -2.08985 -8.22089 5.28652
thorax -1.95931 -3.99563 9.0953
lowerneck -14.6063 6.87922 8.02181
upperneck 20.2066 10.8931 -13.8311
head 10.0866 4.2397 -4.72169
rclavicle 2.80286e-014 -1.59028e-015
rhumerus -39.1383 0.0909363 -72.8497
rradius 32.8485
rwrist -9.83493
rhand -15.8941 -4.16081
rfingers 7.12502
rthumb 10.3023 -33.8885
lclavicle 2.80286e-014 -1.59028e-015
lhumerus -33.8609 21.086 80.547
lradius 36.8866
lwrist 14.2607
lhand -12.6136 0.159401
lfingers 7.12502
lthumb 13.4657 29.7041
rfemur -26.3501 -0.567549 17.6389
rtibia 26.4512
rfoot -14.0689 -17.4462
rtoes -13.571
lfemur 14.5804 -1.93611 -24.9252
ltibia 8.41579
lfoot 4.74649 7.02713
ltoes -29.2548
335
root 0.268172 18.1633 -25.7362 5.89449 2.33226 3.28808
lowerback 2.45947 -6.05033 -5.86715
upperback -2.09111 -8.20057 5.30082
thorax -1.94591 -3.9867 9.08024
lowerneck -14.6173 6.88373 8.01176
upperneck 20.197 10.9057 -13.8523
head 10.0879 4.24237 -4.72525
rclavicle 5.29761e-014 4.77083e-015
rhumerus -39.172 0.283005 -72.9889
rradius 33.105
rwrist -9.97311
rhand -15.8878 -4.15503
rfingers 7.12502
rthumb 10.3084 -33.8824
lclavicle 5.29761e-014 4.77083e-015
lhumerus -33.9186 21.1035 80.5241
lradius 36.8252
lwrist 14.1877
lhand -12.657 0.0690503
lfingers 7.12502
lthumb 13.4238 29.6165
rfemur -26.2283 -0.504907 17.7513
rtibia 26.5547
rfoot -14.0615 -17.415
rtoes -13.6137
lfemur 14.4639 -1.96281 -24.7999
ltibia 8.87407
lfoot 4.95583 6.90716
ltoes -29.5393
336
root 0.25182 18.1663 -25.6742 5.90982 2.31732 3.24835
lowerback 2.42819 -6.03923 -5.82425
upperback -2.09313 -8.18241 5.31195
thorax -1.93822 -3.9785 9.06436
lowerneck -14.6376 6.89627 8.0117
upperneck 20.1987 10.9263 -13.865
head 10.096 4.24965 -4.72627
rclavicle -6.95746e-015 -6.36111e-015
rhumerus -39.2032 0.467991 -73.1306
rradius 33.3453
rwrist -10.0953
rhand -15.9021 -4.17259
rfingers 7.12502
rthumb 10.2946 -33.9006
lclavicle -6.95746e-015 -6.36111e-015
lhumerus -33.9797 21.1213 80.4959
lradius 36.7551
lwrist 14.1033
lhand -12.6753 -0.0085047
lfingers 7.12502
lthumb 13.4062 29.5401
rfemur -26.0942 -0.431626 17.8553
rtibia 26.6581
rfoot -14.0452 -17.3627
rtoes -13.6489
lfemur 14.3708 -1.9949 -24.6748
ltibia 9.30551
lfoot 5.16929 6.75558
ltoes -29.8711
337
root 0.235403 18.1689 -25.6115 5.92012 2.30936 3.21626
lowerback 2.3984 -6.02201 -5.78964
upperback -2.09787 -8.15651 5.31879
thorax -1.93522 -3.96594 9.0491
lowerneck -14.6386 6.89202 7.98659
upperneck 20.1821 10.9224 -13.8572
head 10.0878 4.24729 -4.71931
rclavicle 1.88845e-014 3.18055e-015
rhumerus -39.2526 0.635152 -73.2649
rradius 33.586
rwrist -10.2195
rhand -15.9111 -4.17214
rfingers 7.12502
rthumb 10.2859 -33.9006
lclavicle 1.88845e-014 3.18055e-015
lhumerus -34.0499 21.1211 80.4751
lradius 36.6839
lwrist 14.0091
lhand -12.6736 -0.051818
lfingers 7.12502
lthumb 13.4078 29.4967
rfemur -25.9535 -0.356825 17.9484
rtibia 26.7613
rfoot -14.0194 -17.2849
rtoes -13.6595
lfemur 14.2975 -2.03533 -24.5525
ltibia 9.7127
lfoot 5.38899 6.5689
ltoes -30.2037
